<?xml version="1.0" encoding="UTF-8"?>
<!DOCTYPE svg PUBLIC "-//W3C//DTD SVG 1.1//EN" "http://www.w3.org/Graphics/SVG/1.1/DTD/svg11.dtd">
<!-- Creator: CorelDRAW -->
<svg xmlns="http://www.w3.org/2000/svg" xml:space="preserve" width="210mm" height="187.32mm" version="1.1" style="shape-rendering:geometricPrecision; text-rendering:geometricPrecision; image-rendering:optimizeQuality; fill-rule:evenodd; clip-rule:evenodd"
viewBox="0 0 21000 18731.98"
 xmlns:xlink="http://www.w3.org/1999/xlink"
 xmlns:xodm="http://www.corel.com/coreldraw/odm/2003">
 <defs>
  <style type="text/css">
   <![CDATA[
    .fil1 {fill:#141616}
    .fil3 {fill:#1D2021}
    .fil5 {fill:#484747}
    .fil6 {fill:#595A59}
    .fil0 {fill:#EDEDEC}
    .fil4 {fill:white}
    .fil7 {fill:#040000;fill-opacity:0.039216}
    .fil2 {fill:#040000;fill-opacity:0.101961}
   ]]>
  </style>
 </defs>
 <g id="Livello_x0020_1">
  <metadata id="CorelCorpID_0Corel-Layer"/>
  <g id="_105553752649408">
   <g>
    <g>
     <rect class="fil0" x="53.65" y="782.86" width="21000" height="18608.13"/>
     <g>
      <g>
       <g>
        <path class="fil1" d="M5542.94 10423.16l0 8812.82c0,85.42 -65.46,155.31 -145.48,155.31l-421.94 0.01c-80.02,0 -145.48,-69.88 -145.48,-155.31l0 -8812.82 712.9 -0.01z"/>
        <polygon class="fil2" points="6147.05,12653.47 6147.05,12659.65 5542.94,12659.65 5542.94,13554.37 4830,13554.37 4830,12659.65 4449.66,12659.65 4449.66,12653.47 "/>
       </g>
       <g>
        <path class="fil1" d="M7061.29 357.82l0 11625.52c0,114.94 -24.28,223.67 -66.9,318.73 -5.17,11.16 -10.34,22.37 -16.04,33.23 -2.34,5.3 -5.17,10.25 -8,15.24 -4.14,7.75 -8.29,15.23 -12.92,22.68 -1.27,2.81 -3.12,5.3 -4.63,8.06 -3.12,4.95 -6.19,10.25 -9.56,15.24 -9.02,14.27 -18.58,27.98 -28.92,41.33 -5.41,7.45 -11.12,14.59 -17.06,21.76 -1.03,1.23 -2.34,2.81 -3.36,4.03 -5.7,6.83 -11.61,13.35 -17.55,19.88 -26.87,29.5 -56.31,55.92 -87.57,78.59 -7.22,5.61 -14.72,10.55 -22.48,15.55 -6.44,4.33 -13.17,8.71 -19.89,12.43 -17.8,10.86 -35.89,20.19 -54.76,28.3 -8.29,3.72 -16.53,7.14 -25.06,10.54 -16.53,6.22 -33.59,11.48 -50.61,15.86 -3.9,1.23 -8,2.19 -11.89,2.81 -6.19,1.53 -12.39,2.8 -18.87,4.02 -0.53,0.31 -1.03,0.31 -1.56,0.31 -8.29,1.54 -16.82,2.81 -25.31,4.02 -1.8,0.31 -3.61,0.31 -5.41,0.61 -8.29,0.92 -16.82,1.54 -25.31,2.19 -9.31,0.61 -19.11,0.92 -28.67,0.92l-2401.21 0.02c-9.56,0 -19.36,-0.31 -28.67,-0.92 -8.53,-0.61 -17.06,-1.22 -25.31,-2.19 -1.8,-0.31 -3.61,-0.31 -5.41,-0.6 -8.53,-1.23 -17.06,-2.5 -25.31,-4.03 -0.53,0 -1.03,0 -1.56,-0.31 -6.48,-1.23 -12.67,-2.5 -18.87,-4.02 -3.86,-0.61 -8,-1.54 -11.89,-2.81 -17.06,-4.34 -34.08,-9.63 -50.61,-15.85 -8.53,-3.42 -16.78,-6.84 -25.06,-10.55 -18.87,-8.11 -36.91,-17.38 -54.76,-28.29 -6.73,-3.73 -13.41,-8.11 -19.89,-12.44 -7.75,-5 -15.26,-9.94 -22.48,-15.55 -31.25,-22.68 -60.7,-49.08 -87.57,-78.59 -5.95,-6.53 -11.89,-13.05 -17.55,-19.88 -1.03,-1.23 -2.34,-2.81 -3.12,-4.03 -6.19,-7.14 -11.89,-14.27 -17.31,-21.75 -10.34,-13.36 -19.89,-27.02 -28.92,-41.34 -3.36,-4.94 -6.44,-10.25 -9.56,-15.24 -1.56,-2.8 -3.36,-5.29 -4.63,-8.06 -4.68,-7.44 -8.78,-14.93 -12.92,-22.68 -2.83,-5 -5.7,-9.94 -8,-15.24 -5.66,-10.85 -10.87,-22.06 -16,-33.23 -42.62,-95.06 -66.9,-203.8 -66.9,-318.73l0.02 -11625.54 3525.82 0z"/>
        <path class="fil3" d="M6994.4 12302.07c-5.17,11.16 -10.34,22.37 -16.04,33.23 -2.34,5.3 -5.17,10.25 -8,15.24 -4.14,7.75 -8.29,15.23 -12.92,22.68 -1.27,2.81 -3.12,5.3 -4.63,8.06 -3.12,4.95 -6.19,10.25 -9.56,15.24 -9.02,14.27 -18.58,27.98 -28.92,41.33 -5.41,7.45 -11.12,14.59 -17.06,21.76 -1.03,1.23 -2.34,2.81 -3.36,4.03 -5.7,6.83 -11.61,13.35 -17.55,19.88 -26.87,29.5 -56.31,55.92 -87.57,78.59 -7.22,5.61 -14.72,10.55 -22.48,15.55 -6.44,4.33 -13.17,8.71 -19.89,12.43 -17.8,10.86 -35.89,20.19 -54.76,28.3 -8.29,3.72 -16.53,7.14 -25.06,10.54 -16.53,6.22 -33.59,11.48 -50.61,15.86 -3.9,1.23 -8,2.19 -11.89,2.81 -6.19,1.53 -12.39,2.8 -18.87,4.02 -0.53,0.31 -1.03,0.31 -1.56,0.31 -8.29,1.54 -16.82,2.81 -25.31,4.02 -1.8,0.31 -3.61,0.31 -5.41,0.61 -8.29,0.92 -16.82,1.54 -25.31,2.19 -9.31,0.61 -19.11,0.92 -28.67,0.92l-2401.22 0.02c-9.56,0 -19.36,-0.31 -28.67,-0.92 -8.53,-0.61 -17.06,-1.22 -25.31,-2.19 -1.8,-0.31 -3.61,-0.31 -5.41,-0.6 -8.53,-1.23 -17.06,-2.5 -25.31,-4.03 -0.53,0 -1.03,0 -1.56,-0.31 -6.48,-1.23 -12.67,-2.5 -18.87,-4.02 -3.86,-0.61 -8,-1.54 -11.89,-2.81 -17.06,-4.34 -34.08,-9.63 -50.61,-15.85 -8.53,-3.42 -16.78,-6.84 -25.06,-10.55 -18.87,-8.11 -36.91,-17.38 -54.76,-28.29 -6.73,-3.73 -13.41,-8.11 -19.89,-12.44 -7.75,-5 -15.26,-9.94 -22.48,-15.55 -31.25,-22.68 -60.7,-49.08 -87.57,-78.59 -5.95,-6.53 -11.89,-13.05 -17.55,-19.88 -1.03,-1.23 -2.34,-2.81 -3.12,-4.03 -6.19,-7.14 -11.89,-14.27 -17.31,-21.75 -10.34,-13.36 -19.89,-27.02 -28.92,-41.34 -3.36,-4.94 -6.44,-10.25 -9.56,-15.24 -1.56,-2.8 -3.36,-5.29 -4.63,-8.06 -4.68,-7.44 -8.78,-14.93 -12.92,-22.68 -2.83,-5 -5.7,-9.94 -8,-15.24 -5.66,-10.85 -10.87,-22.06 -16,-33.23l445.84 -2388.73c0,-371.85 252.9,-676.32 562.32,-676.32l1375.76 -0.02c309.46,0 562.32,304.46 562.32,676.31l445.81 2388.74z"/>
        <g>
         <rect class="fil3" x="4215.74" y="451.13" width="68.87" height="8608.95"/>
         <rect class="fil3" x="6282.23" y="451.13" width="68.87" height="8608.95"/>
        </g>
       </g>
      </g>
      <g>
       <g>
        <path class="fil1" d="M10798.23 10423.16l0 8812.82c0,85.42 -65.46,155.31 -145.48,155.31l-421.93 0.01c-80.02,0 -145.48,-69.88 -145.48,-155.31l0 -8812.82 712.89 -0.01z"/>
        <polygon class="fil2" points="11402.35,12653.47 11402.35,12659.65 10798.23,12659.65 10798.23,13554.37 10085.29,13554.37 10085.29,12659.65 9704.95,12659.65 9704.95,12653.47 "/>
       </g>
       <g>
        <path class="fil1" d="M12316.58 357.82l0 11625.52c0,114.94 -24.28,223.67 -66.9,318.73 -5.17,11.16 -10.34,22.37 -16.04,33.23 -2.34,5.3 -5.17,10.25 -8,15.24 -4.14,7.75 -8.29,15.23 -12.92,22.68 -1.31,2.81 -3.12,5.3 -4.63,8.06 -3.12,4.95 -6.19,10.25 -9.56,15.24 -9.06,14.27 -18.62,27.98 -28.96,41.33 -5.41,7.45 -11.12,14.59 -17.06,21.76 -1.03,1.23 -2.34,2.81 -3.36,4.03 -5.66,6.83 -11.61,13.35 -17.55,19.88 -26.87,29.5 -56.31,55.92 -87.57,78.59 -7.22,5.61 -14.72,10.55 -22.48,15.55 -6.44,4.33 -13.17,8.71 -19.89,12.43 -17.84,10.86 -35.89,20.19 -54.76,28.3 -8.29,3.72 -16.53,7.14 -25.06,10.54 -16.53,6.22 -33.59,11.48 -50.61,15.86 -3.9,1.23 -8,2.19 -11.89,2.81 -6.19,1.53 -12.39,2.8 -18.87,4.02 -0.53,0.31 -1.03,0.31 -1.56,0.31 -8.29,1.54 -16.78,2.81 -25.31,4.02 -1.8,0.31 -3.61,0.31 -5.41,0.61 -8.29,0.92 -16.82,1.54 -25.31,2.19 -9.31,0.61 -19.11,0.92 -28.67,0.92l-2401.21 0.02c-9.56,0 -19.36,-0.31 -28.67,-0.92 -8.53,-0.61 -17.06,-1.22 -25.31,-2.19 -1.8,-0.31 -3.61,-0.31 -5.41,-0.6 -8.53,-1.23 -17.06,-2.5 -25.31,-4.03 -0.53,0 -1.03,0 -1.56,-0.31 -6.48,-1.23 -12.67,-2.5 -18.87,-4.02 -3.86,-0.61 -8,-1.54 -11.89,-2.81 -17.06,-4.34 -34.08,-9.63 -50.61,-15.85 -8.53,-3.42 -16.78,-6.84 -25.06,-10.55 -18.87,-8.11 -36.91,-17.38 -54.76,-28.29 -6.73,-3.73 -13.41,-8.11 -19.89,-12.44 -7.75,-5 -15.26,-9.94 -22.48,-15.55 -31.25,-22.68 -60.7,-49.08 -87.57,-78.59 -5.95,-6.53 -11.89,-13.05 -17.55,-19.88 -1.03,-1.23 -2.34,-2.81 -3.12,-4.03 -6.19,-7.14 -11.89,-14.27 -17.31,-21.75 -10.34,-13.36 -19.89,-27.02 -28.92,-41.34 -3.36,-4.94 -6.44,-10.25 -9.56,-15.24 -1.56,-2.8 -3.36,-5.29 -4.63,-8.06 -4.63,-7.44 -8.78,-14.93 -12.92,-22.68 -2.83,-5 -5.7,-9.94 -8,-15.24 -5.7,-10.85 -10.87,-22.06 -16.04,-33.23 -42.62,-95.06 -66.9,-203.8 -66.9,-318.73l0.02 -11625.54 3525.9 0z"/>
        <path class="fil3" d="M12249.69 12302.07c-5.17,11.16 -10.34,22.37 -16.04,33.23 -2.34,5.3 -5.17,10.25 -8,15.24 -4.14,7.75 -8.29,15.23 -12.92,22.68 -1.31,2.81 -3.12,5.3 -4.63,8.06 -3.12,4.95 -6.19,10.25 -9.56,15.24 -9.06,14.27 -18.62,27.98 -28.96,41.33 -5.41,7.45 -11.12,14.59 -17.06,21.76 -1.03,1.23 -2.34,2.81 -3.36,4.03 -5.66,6.83 -11.61,13.35 -17.55,19.88 -26.87,29.5 -56.31,55.92 -87.57,78.59 -7.22,5.61 -14.72,10.55 -22.48,15.55 -6.44,4.33 -13.17,8.71 -19.89,12.43 -17.84,10.86 -35.89,20.19 -54.76,28.3 -8.29,3.72 -16.53,7.14 -25.06,10.54 -16.53,6.22 -33.59,11.48 -50.61,15.86 -3.9,1.23 -8,2.19 -11.89,2.81 -6.19,1.53 -12.39,2.8 -18.87,4.02 -0.53,0.31 -1.03,0.31 -1.56,0.31 -8.29,1.54 -16.78,2.81 -25.31,4.02 -1.8,0.31 -3.61,0.31 -5.41,0.61 -8.29,0.92 -16.82,1.54 -25.31,2.19 -9.31,0.61 -19.11,0.92 -28.67,0.92l-2401.22 0.02c-9.56,0 -19.36,-0.31 -28.67,-0.92 -8.53,-0.61 -17.06,-1.22 -25.31,-2.19 -1.8,-0.31 -3.61,-0.31 -5.41,-0.6 -8.53,-1.23 -17.06,-2.5 -25.31,-4.03 -0.53,0 -1.03,0 -1.56,-0.31 -6.48,-1.23 -12.67,-2.5 -18.87,-4.02 -3.86,-0.61 -8,-1.54 -11.89,-2.81 -17.06,-4.34 -34.08,-9.63 -50.61,-15.85 -8.53,-3.42 -16.78,-6.84 -25.06,-10.55 -18.87,-8.11 -36.91,-17.38 -54.76,-28.29 -6.73,-3.73 -13.41,-8.11 -19.89,-12.44 -7.75,-5 -15.26,-9.94 -22.48,-15.55 -31.25,-22.68 -60.7,-49.08 -87.57,-78.59 -5.95,-6.53 -11.89,-13.05 -17.55,-19.88 -1.03,-1.23 -2.34,-2.81 -3.12,-4.03 -6.19,-7.14 -11.89,-14.27 -17.31,-21.75 -10.34,-13.36 -19.89,-27.02 -28.92,-41.34 -3.36,-4.94 -6.44,-10.25 -9.56,-15.24 -1.56,-2.8 -3.36,-5.29 -4.63,-8.06 -4.63,-7.44 -8.78,-14.93 -12.92,-22.68 -2.83,-5 -5.7,-9.94 -8,-15.24 -5.7,-10.85 -10.87,-22.06 -16.04,-33.23l445.84 -2388.73c0,-371.85 252.9,-676.32 562.32,-676.32l1375.76 -0.02c309.46,0 562.32,304.46 562.32,676.31l445.89 2388.74z"/>
        <g>
         <rect class="fil3" x="9471.08" y="451.13" width="68.87" height="8608.95"/>
         <rect class="fil3" x="11537.54" y="451.13" width="68.87" height="8608.95"/>
        </g>
       </g>
      </g>
      <g>
       <g>
        <path class="fil1" d="M16053.52 10423.16l0 8812.82c0,85.42 -65.46,155.31 -145.48,155.31l-421.93 0.01c-80.02,0 -145.48,-69.88 -145.48,-155.31l0 -8812.82 712.89 -0.01z"/>
        <polygon class="fil2" points="16657.64,12653.47 16657.64,12659.65 16053.52,12659.65 16053.52,13554.37 15340.58,13554.37 15340.58,12659.65 14960.25,12659.65 14960.25,12653.47 "/>
       </g>
       <g>
        <path class="fil1" d="M17571.92 357.82l0 11625.52c0,114.94 -24.28,223.67 -66.9,318.73 -5.17,11.16 -10.34,22.37 -16.04,33.23 -2.34,5.3 -5.17,10.25 -8,15.24 -4.14,7.75 -8.29,15.23 -12.92,22.68 -1.27,2.81 -3.12,5.3 -4.63,8.06 -3.12,4.95 -6.19,10.25 -9.56,15.24 -9.02,14.27 -18.58,27.98 -28.96,41.33 -5.41,7.45 -11.12,14.59 -17.06,21.76 -1.03,1.23 -2.34,2.81 -3.36,4.03 -5.7,6.83 -11.61,13.35 -17.55,19.88 -26.87,29.5 -56.31,55.92 -87.57,78.59 -7.22,5.61 -14.72,10.55 -22.48,15.55 -6.44,4.33 -13.17,8.71 -19.89,12.43 -17.84,10.86 -35.89,20.19 -54.76,28.3 -8.29,3.72 -16.53,7.14 -25.06,10.54 -16.53,6.22 -33.59,11.48 -50.61,15.86 -3.9,1.23 -8,2.19 -11.89,2.81 -6.19,1.53 -12.39,2.8 -18.87,4.02 -0.53,0.31 -1.03,0.31 -1.56,0.31 -8.29,1.54 -16.82,2.81 -25.31,4.02 -1.8,0.31 -3.61,0.31 -5.41,0.61 -8.29,0.92 -16.78,1.54 -25.31,2.19 -9.31,0.61 -19.11,0.92 -28.67,0.92l-2401.22 0.02c-9.56,0 -19.36,-0.31 -28.67,-0.92 -8.53,-0.61 -17.06,-1.22 -25.31,-2.19 -1.8,-0.31 -3.61,-0.31 -5.41,-0.6 -8.53,-1.23 -17.06,-2.5 -25.31,-4.03 -0.53,0 -1.03,0 -1.56,-0.31 -6.48,-1.23 -12.67,-2.5 -18.87,-4.02 -3.86,-0.61 -8,-1.54 -11.89,-2.81 -17.06,-4.34 -34.08,-9.63 -50.61,-15.85 -8.53,-3.42 -16.78,-6.84 -25.06,-10.55 -18.87,-8.11 -36.96,-17.38 -54.76,-28.29 -6.73,-3.73 -13.41,-8.11 -19.89,-12.44 -7.75,-5 -15.26,-9.94 -22.48,-15.55 -31.25,-22.68 -60.7,-49.08 -87.57,-78.59 -5.95,-6.53 -11.89,-13.05 -17.55,-19.88 -1.03,-1.23 -2.34,-2.81 -3.12,-4.03 -6.19,-7.14 -11.89,-14.27 -17.31,-21.75 -10.34,-13.36 -19.89,-27.02 -28.92,-41.34 -3.36,-4.94 -6.48,-10.25 -9.56,-15.24 -1.56,-2.8 -3.36,-5.29 -4.63,-8.06 -4.63,-7.44 -8.78,-14.93 -12.92,-22.68 -2.83,-5 -5.7,-9.94 -8,-15.24 -5.66,-10.85 -10.87,-22.06 -16.04,-33.23 -42.62,-95.06 -66.9,-203.8 -66.9,-318.73l0.02 -11625.54 3525.91 0z"/>
        <path class="fil3" d="M17504.98 12302.07c-5.17,11.16 -10.34,22.37 -16.04,33.23 -2.34,5.3 -5.17,10.25 -8,15.24 -4.14,7.75 -8.29,15.23 -12.92,22.68 -1.27,2.81 -3.12,5.3 -4.63,8.06 -3.12,4.95 -6.19,10.25 -9.56,15.24 -9.02,14.27 -18.58,27.98 -28.96,41.33 -5.41,7.45 -11.12,14.59 -17.06,21.76 -1.03,1.23 -2.34,2.81 -3.36,4.03 -5.7,6.83 -11.61,13.35 -17.55,19.88 -26.87,29.5 -56.31,55.92 -87.57,78.59 -7.22,5.61 -14.72,10.55 -22.48,15.55 -6.44,4.33 -13.17,8.71 -19.89,12.43 -17.84,10.86 -35.89,20.19 -54.76,28.3 -8.29,3.72 -16.53,7.14 -25.06,10.54 -16.53,6.22 -33.59,11.48 -50.61,15.86 -3.9,1.23 -8,2.19 -11.89,2.81 -6.19,1.53 -12.39,2.8 -18.87,4.02 -0.53,0.31 -1.03,0.31 -1.56,0.31 -8.29,1.54 -16.82,2.81 -25.31,4.02 -1.8,0.31 -3.61,0.31 -5.41,0.61 -8.29,0.92 -16.78,1.54 -25.31,2.19 -9.31,0.61 -19.11,0.92 -28.67,0.92l-2401.22 0.02c-9.56,0 -19.36,-0.31 -28.67,-0.92 -8.53,-0.61 -17.06,-1.22 -25.31,-2.19 -1.8,-0.31 -3.61,-0.31 -5.41,-0.6 -8.53,-1.23 -17.06,-2.5 -25.31,-4.03 -0.53,0 -1.03,0 -1.56,-0.31 -6.48,-1.23 -12.67,-2.5 -18.87,-4.02 -3.86,-0.61 -8,-1.54 -11.89,-2.81 -17.06,-4.34 -34.08,-9.63 -50.61,-15.85 -8.53,-3.42 -16.78,-6.84 -25.06,-10.55 -18.87,-8.11 -36.96,-17.38 -54.76,-28.29 -6.73,-3.73 -13.41,-8.11 -19.89,-12.44 -7.75,-5 -15.26,-9.94 -22.48,-15.55 -31.25,-22.68 -60.7,-49.08 -87.57,-78.59 -5.95,-6.53 -11.89,-13.05 -17.55,-19.88 -1.03,-1.23 -2.34,-2.81 -3.12,-4.03 -6.19,-7.14 -11.89,-14.27 -17.31,-21.75 -10.34,-13.36 -19.89,-27.02 -28.92,-41.34 -3.36,-4.94 -6.48,-10.25 -9.56,-15.24 -1.56,-2.8 -3.36,-5.29 -4.63,-8.06 -4.63,-7.44 -8.78,-14.93 -12.92,-22.68 -2.83,-5 -5.7,-9.94 -8,-15.24 -5.66,-10.85 -10.87,-22.06 -16.04,-33.23l445.84 -2388.73c0,-371.85 252.9,-676.32 562.32,-676.32l1375.8 -0.02c309.46,0 562.32,304.46 562.32,676.31l445.85 2388.74z"/>
        <g>
         <rect class="fil3" x="14726.38" y="451.13" width="68.87" height="8608.95"/>
         <rect class="fil3" x="16792.83" y="451.13" width="68.87" height="8608.95"/>
        </g>
       </g>
      </g>
     </g>
    </g>
    <g>
     <rect class="fil4" x="53.65" y="-182.31" width="21000" height="17913.21"/>
     <g>
      <g>
       <g>
        <rect class="fil5" x="4830" y="9458.02" width="712.93" height="8271.73"/>
        <polygon class="fil2" points="6147.05,11688.29 6147.05,11694.51 5542.94,11694.51 5542.94,12589.23 4830,12589.23 4830,11694.51 4449.66,11694.51 4449.66,11688.29 "/>
       </g>
       <g>
        <path class="fil5" d="M7062.4 -606.97l0 11623.95c0,115.82 -26.29,224.63 -69.03,319.35 -3.28,10.55 -9.84,24.56 -16.45,35.11 0,3.5 -3.28,10.51 -6.56,14.06 -3.28,7 -9.88,14.06 -13.17,21.06 0,3.51 -3.28,7.05 -3.28,10.55 -3.28,3.5 -6.56,10.51 -9.84,14.02 -9.88,14.06 -19.73,28.07 -29.61,42.13 -6.56,7 -9.84,14.06 -16.45,21.06 -3.28,0 -3.28,3.5 -3.28,3.5 -6.56,7.01 -13.13,14.02 -19.73,21.07 -6.56,7 -13.13,14.06 -23.01,21.06 -19.73,21.06 -39.46,42.13 -62.47,56.18 -6.56,7 -16.45,10.5 -23.01,17.56 -6.56,3.5 -13.13,7 -19.73,10.5 -19.73,10.55 -36.18,21.07 -55.86,28.07 -6.56,3.5 -16.45,7.01 -23.01,10.55 -16.45,7 -36.18,14.02 -52.58,17.56 -3.28,0 -6.56,0 -9.88,3.5 -6.56,0 -13.13,0 -19.73,3.51 0,0 0,0 -3.28,0 -6.56,0 -16.45,3.5 -23.01,3.5 -3.28,0 -3.28,0 -6.56,0 -6.56,0 -16.45,3.5 -26.29,3.5l-2458.98 0c-6.56,0 -16.45,-3.5 -23.01,-3.5 -3.28,0 -3.28,0 -6.56,0 -6.56,0 -16.45,-3.5 -26.29,-3.5 -6.56,-3.51 -13.17,-3.51 -19.73,-3.51 -3.28,-3.5 -6.56,-3.5 -9.84,-3.5 -19.73,-3.5 -36.18,-10.55 -52.58,-17.56 -6.56,-3.5 -16.45,-7 -23.01,-10.55 -19.73,-7 -39.46,-17.56 -55.9,-28.07 -6.56,-3.5 -13.17,-7 -19.73,-10.5 -9.84,-7 -16.45,-10.55 -23.01,-17.56 -23.01,-14.06 -46.02,-35.12 -65.75,-52.68 -6.56,-10.5 -16.45,-17.56 -23.01,-24.56 -3.28,-7.01 -9.88,-14.02 -16.45,-21.07l-3.28 -3.5c-6.56,-7 -13.17,-14.02 -16.45,-21.06 -9.88,-14.02 -19.73,-28.07 -29.61,-42.13 -3.28,-3.5 -6.56,-10.51 -9.88,-14.02 0,-3.5 -3.28,-7 -3.28,-10.55 -6.56,-7 -9.88,-14.01 -13.17,-21.06 -3.28,-3.5 -6.56,-10.5 -9.84,-14.06 -3.28,-10.55 -9.88,-24.56 -16.45,-35.11 -42.74,-94.76 -65.75,-203.53 -65.75,-319.35l0 -11623.95 3527.38 0z"/>
        <path class="fil6" d="M6994.4 11336.94c-5.17,11.16 -10.34,22.37 -16.04,33.23 -2.34,5.3 -5.17,10.25 -8,15.23 -4.14,7.76 -8.29,15.24 -12.92,22.69 -1.27,2.81 -3.12,5.3 -4.63,8.06 -3.12,5 -6.19,10.25 -9.56,15.24 -9.02,14.27 -18.58,27.98 -28.92,41.33 -5.41,7.44 -11.12,14.59 -17.06,21.76 -1.03,1.23 -2.34,2.81 -3.36,4.03 -5.7,6.83 -11.61,13.35 -17.55,19.87 -26.87,29.51 -56.31,55.93 -87.57,78.6 -7.22,5.61 -14.72,10.55 -22.48,15.55 -6.44,4.33 -13.17,8.71 -19.89,12.43 -17.8,10.86 -35.89,20.19 -54.76,28.29 -8.29,3.73 -16.53,7.15 -25.06,10.55 -16.53,6.22 -33.59,11.52 -50.61,15.86 -3.9,1.22 -8,2.19 -11.89,2.8 -6.19,1.54 -12.39,2.81 -18.87,4.03 -0.53,0.31 -1.03,0.31 -1.56,0.31 -8.29,1.58 -16.82,2.81 -25.31,4.02 -1.8,0.31 -3.61,0.31 -5.41,0.61 -8.29,0.92 -16.82,1.54 -25.31,2.19 -9.31,0.61 -19.11,0.92 -28.67,0.92l-2401.22 0.01c-9.56,0 -19.36,-0.31 -28.67,-0.92 -8.53,-0.61 -17.06,-1.23 -25.31,-2.19 -1.8,-0.31 -3.61,-0.31 -5.41,-0.61 -8.53,-1.22 -17.06,-2.49 -25.31,-4.02 -0.53,0 -1.03,0 -1.56,-0.31 -6.48,-1.23 -12.67,-2.5 -18.87,-4.03 -3.86,-0.6 -8,-1.58 -11.89,-2.8 -17.06,-4.34 -34.08,-9.63 -50.61,-15.86 -8.53,-3.41 -16.78,-6.83 -25.06,-10.54 -18.87,-8.07 -36.91,-17.39 -54.76,-28.3 -6.73,-3.72 -13.41,-8.06 -19.89,-12.43 -7.75,-5 -15.26,-9.94 -22.48,-15.55 -31.25,-22.68 -60.7,-49.09 -87.57,-78.59 -5.95,-6.53 -11.89,-13.05 -17.55,-19.88 -1.03,-1.23 -2.34,-2.81 -3.12,-4.03 -6.19,-7.14 -11.89,-14.27 -17.31,-21.76 -10.34,-13.35 -19.89,-27.02 -28.92,-41.33 -3.36,-4.95 -6.44,-10.25 -9.56,-15.24 -1.56,-2.81 -3.36,-5.29 -4.63,-8.06 -4.68,-7.44 -8.78,-14.93 -12.92,-22.68 -2.83,-4.95 -5.7,-9.94 -8,-15.24 -5.66,-10.86 -10.87,-22.07 -16,-33.23l445.84 -2388.74c0,-371.89 252.9,-676.31 562.32,-676.31l1375.76 -0.01c309.46,0 562.32,304.46 562.32,676.31l445.81 2388.74z"/>
        <g>
         <rect class="fil6" x="4215.74" y="-514.06" width="68.87" height="8608.95"/>
         <rect class="fil6" x="6282.23" y="-514.06" width="68.87" height="8608.95"/>
        </g>
       </g>
      </g>
      <g>
       <g>
        <rect class="fil5" x="10085.29" y="9458.02" width="712.93" height="8271.73"/>
        <polygon class="fil2" points="11402.35,11688.29 11402.35,11694.51 10798.23,11694.51 10798.23,12589.23 10085.29,12589.23 10085.29,11694.51 9704.95,11694.51 9704.95,11688.29 "/>
       </g>
       <g>
        <path class="fil5" d="M12315.68 -606.97l0 11623.95c0,115.82 -23.01,224.63 -65.75,319.35 -6.56,10.55 -9.88,24.56 -16.45,35.11 -3.28,3.5 -6.56,10.51 -6.56,14.06 -6.56,7 -9.88,14.06 -13.17,21.06 -3.28,3.51 -3.28,7.05 -6.56,10.55 -3.28,3.5 -6.56,10.51 -9.88,14.02 -6.56,14.06 -16.45,28.07 -26.29,42.13 -6.56,7 -13.13,14.06 -19.73,21.06 0,0 0,3.5 -3.28,3.5 -3.28,7.01 -9.88,14.02 -16.45,21.07 -6.56,7 -13.13,14.06 -23.01,24.56 -19.73,17.56 -42.74,38.63 -65.75,52.68 -6.56,7 -13.17,10.5 -19.73,17.56 -6.56,3.5 -13.17,7 -23.01,10.5 -16.45,10.55 -32.89,21.07 -52.62,28.07 -9.84,3.5 -16.45,7.01 -26.29,10.55 -16.45,7 -32.89,14.02 -49.34,17.56 -3.28,0 -9.88,0 -13.13,3.5 -6.56,0 -13.17,0 -19.73,3.51 -9.88,0 -16.45,3.5 -26.29,3.5l-3.28 0c-9.88,0 -16.45,3.5 -26.29,3.5l-2458.97 0c-9.88,0 -16.45,-3.5 -26.29,-3.5l-3.28 0c-9.84,0 -16.45,-3.5 -26.29,-3.5 -6.56,-3.51 -13.17,-3.51 -19.73,-3.51 -3.28,-3.5 -9.88,-3.5 -13.17,-3.5 -16.45,-3.5 -32.85,-10.55 -49.3,-17.56 -9.88,-3.5 -16.45,-7 -26.29,-10.55 -19.73,-7 -36.18,-17.56 -52.58,-28.07 -9.88,-3.5 -16.45,-7 -23.01,-10.5 -6.6,-7 -13.17,-10.55 -19.73,-17.56 -23.01,-14.06 -46.02,-35.12 -65.75,-52.68 -9.88,-10.5 -16.45,-17.56 -23.01,-24.56 -6.6,-7.01 -13.17,-14.02 -16.45,-21.07 -3.28,0 -3.28,-3.5 -3.28,-3.5 -6.56,-7 -13.13,-14.02 -19.73,-21.06 -9.88,-14.02 -19.73,-28.07 -26.29,-42.13 -3.28,-3.5 -6.6,-10.51 -9.84,-14.02 -3.28,-3.5 -3.28,-7 -6.56,-10.55 -3.28,-7 -6.6,-14.01 -13.13,-21.06 0,-3.5 -3.28,-10.5 -6.6,-14.06 -6.56,-10.55 -9.88,-24.56 -16.45,-35.11 -13.17,-31.57 -26.29,-63.19 -36.18,-94.76 -19.73,-70.2 -29.57,-147.4 -29.57,-224.64l0.01 -11623.9 3524.06 0z"/>
        <path class="fil6" d="M12249.69 11336.94c-5.17,11.16 -10.34,22.37 -16.04,33.23 -2.34,5.3 -5.17,10.25 -8,15.23 -4.14,7.76 -8.29,15.24 -12.92,22.69 -1.31,2.81 -3.12,5.3 -4.63,8.06 -3.12,5 -6.19,10.25 -9.56,15.24 -9.06,14.27 -18.62,27.98 -28.96,41.33 -5.41,7.44 -11.12,14.59 -17.06,21.76 -1.03,1.23 -2.34,2.81 -3.36,4.03 -5.66,6.83 -11.61,13.35 -17.55,19.87 -26.87,29.51 -56.31,55.93 -87.57,78.6 -7.22,5.61 -14.72,10.55 -22.48,15.55 -6.44,4.33 -13.17,8.71 -19.89,12.43 -17.84,10.86 -35.89,20.19 -54.76,28.29 -8.29,3.73 -16.53,7.15 -25.06,10.55 -16.53,6.22 -33.59,11.52 -50.61,15.86 -3.9,1.22 -8,2.19 -11.89,2.8 -6.19,1.54 -12.39,2.81 -18.87,4.03 -0.53,0.31 -1.03,0.31 -1.56,0.31 -8.29,1.58 -16.78,2.81 -25.31,4.02 -1.8,0.31 -3.61,0.31 -5.41,0.61 -8.29,0.92 -16.82,1.54 -25.31,2.19 -9.31,0.61 -19.11,0.92 -28.67,0.92l-2401.22 0.01c-9.56,0 -19.36,-0.31 -28.67,-0.92 -8.53,-0.61 -17.06,-1.23 -25.31,-2.19 -1.8,-0.31 -3.61,-0.31 -5.41,-0.61 -8.53,-1.22 -17.06,-2.49 -25.31,-4.02 -0.53,0 -1.03,0 -1.56,-0.31 -6.48,-1.23 -12.67,-2.5 -18.87,-4.03 -3.86,-0.6 -8,-1.58 -11.89,-2.8 -17.06,-4.34 -34.08,-9.63 -50.61,-15.86 -8.53,-3.41 -16.78,-6.83 -25.06,-10.54 -18.87,-8.07 -36.91,-17.39 -54.76,-28.3 -6.73,-3.72 -13.41,-8.06 -19.89,-12.43 -7.75,-5 -15.26,-9.94 -22.48,-15.55 -31.25,-22.68 -60.7,-49.09 -87.57,-78.59 -5.95,-6.53 -11.89,-13.05 -17.55,-19.88 -1.03,-1.23 -2.34,-2.81 -3.12,-4.03 -6.19,-7.14 -11.89,-14.27 -17.31,-21.76 -10.34,-13.35 -19.89,-27.02 -28.92,-41.33 -3.36,-4.95 -6.44,-10.25 -9.56,-15.24 -1.56,-2.81 -3.36,-5.29 -4.63,-8.06 -4.63,-7.44 -8.78,-14.93 -12.92,-22.68 -2.83,-4.95 -5.7,-9.94 -8,-15.24 -5.7,-10.86 -10.87,-22.07 -16.04,-33.23l445.84 -2388.74c0,-371.89 252.9,-676.31 562.32,-676.31l1375.76 -0.01c309.46,0 562.32,304.46 562.32,676.31l445.89 2388.74z"/>
        <g>
         <rect class="fil6" x="9471.08" y="-514.06" width="68.87" height="8608.95"/>
         <rect class="fil6" x="11537.54" y="-514.06" width="68.87" height="8608.95"/>
        </g>
       </g>
      </g>
      <g>
       <g>
        <rect class="fil5" x="15340.59" y="9458.02" width="712.93" height="8271.73"/>
        <polygon class="fil2" points="16657.64,11688.29 16657.64,11694.51 16053.52,11694.51 16053.52,12589.23 15340.58,12589.23 15340.58,11694.51 14960.25,11694.51 14960.25,11688.29 "/>
       </g>
       <g>
        <path class="fil5" d="M17572.28 -606.97l0 11623.95c0,115.82 -26.29,224.63 -65.75,319.35 -6.56,10.55 -13.17,24.56 -16.45,35.11 -3.28,3.5 -6.6,10.51 -9.88,14.06 -3.28,7 -6.56,14.06 -13.13,21.06 0,3.51 -3.28,7.05 -3.28,10.55 -3.28,3.5 -6.56,10.51 -9.88,14.02 -9.84,14.06 -19.73,28.07 -29.57,42.13 -3.28,7 -9.88,14.06 -16.45,21.06l-3.28 3.5c-6.56,7.01 -13.17,14.02 -16.45,21.07 -6.56,7 -13.13,14.06 -23.01,21.06 -23.01,21.06 -42.74,38.63 -65.75,56.18 -6.56,7 -13.17,10.5 -23.01,17.56 -6.56,3.5 -13.13,7 -19.73,10.5 -16.45,10.55 -36.13,21.07 -55.86,28.07 -6.56,3.5 -16.45,7.01 -23.01,10.55 -16.45,7 -32.89,14.02 -52.62,17.56 -3.28,0 -6.56,0 -9.84,3.5 -6.56,0 -13.17,0 -19.73,3.51 -9.88,0 -19.73,3.5 -26.29,3.5 -3.28,0 -3.28,0 -6.56,0 -6.56,0 -16.45,3.5 -23.01,3.5l-2458.97 0c-9.84,0 -19.73,-3.5 -26.29,-3.5 -3.28,0 -3.28,0 -6.56,0 -6.56,0 -16.45,-3.5 -23.01,-3.5 -3.28,0 -3.28,0 -3.28,0 -6.56,-3.51 -13.13,-3.51 -19.73,-3.51 -3.28,-3.5 -6.56,-3.5 -9.88,-3.5 -16.45,-3.5 -36.18,-10.55 -52.58,-17.56 -6.6,-3.5 -16.45,-7 -23.01,-10.55 -19.73,-7 -36.18,-17.56 -55.86,-28.07 -6.56,-3.5 -13.17,-7 -19.73,-10.5 -6.56,-7 -16.45,-10.55 -23.01,-17.56 -23.01,-14.06 -42.74,-35.12 -62.47,-56.18 -9.88,-7 -16.45,-14.02 -23.01,-21.06l-19.73 -21.07c0,0 0,-3.5 -3.28,-3.5 -6.56,-7 -9.84,-14.02 -16.45,-21.06 -9.88,-14.02 -19.73,-28.07 -29.61,-42.13 -3.28,-3.5 -6.56,-10.51 -9.84,-14.02 0,-3.5 -3.28,-7 -3.28,-10.55 -3.28,-7 -9.84,-14.01 -13.13,-21.06 -3.28,-3.5 -6.6,-10.5 -6.6,-14.06 -6.56,-10.55 -13.13,-24.56 -16.45,-35.11 -42.74,-94.76 -69.03,-203.53 -69.03,-319.35l-0.01 -11623.95 3527.34 0z"/>
        <path class="fil6" d="M17504.98 11336.94c-5.17,11.16 -10.34,22.37 -16.04,33.23 -2.34,5.3 -5.17,10.25 -8,15.23 -4.14,7.76 -8.29,15.24 -12.92,22.69 -1.27,2.81 -3.12,5.3 -4.63,8.06 -3.12,5 -6.19,10.25 -9.56,15.24 -9.02,14.27 -18.58,27.98 -28.96,41.33 -5.41,7.44 -11.12,14.59 -17.06,21.76 -1.03,1.23 -2.34,2.81 -3.36,4.03 -5.7,6.83 -11.61,13.35 -17.55,19.87 -26.87,29.51 -56.31,55.93 -87.57,78.6 -7.22,5.61 -14.72,10.55 -22.48,15.55 -6.44,4.33 -13.17,8.71 -19.89,12.43 -17.84,10.86 -35.89,20.19 -54.76,28.29 -8.29,3.73 -16.53,7.15 -25.06,10.55 -16.53,6.22 -33.59,11.52 -50.61,15.86 -3.9,1.22 -8,2.19 -11.89,2.8 -6.19,1.54 -12.39,2.81 -18.87,4.03 -0.53,0.31 -1.03,0.31 -1.56,0.31 -8.29,1.58 -16.82,2.81 -25.31,4.02 -1.8,0.31 -3.61,0.31 -5.41,0.61 -8.29,0.92 -16.78,1.54 -25.31,2.19 -9.31,0.61 -19.11,0.92 -28.67,0.92l-2401.22 0.01c-9.56,0 -19.36,-0.31 -28.67,-0.92 -8.53,-0.61 -17.06,-1.23 -25.31,-2.19 -1.8,-0.31 -3.61,-0.31 -5.41,-0.61 -8.53,-1.22 -17.06,-2.49 -25.31,-4.02 -0.53,0 -1.03,0 -1.56,-0.31 -6.48,-1.23 -12.67,-2.5 -18.87,-4.03 -3.86,-0.6 -8,-1.58 -11.89,-2.8 -17.06,-4.34 -34.08,-9.63 -50.61,-15.86 -8.53,-3.41 -16.78,-6.83 -25.06,-10.54 -18.87,-8.07 -36.96,-17.39 -54.76,-28.3 -6.73,-3.72 -13.41,-8.06 -19.89,-12.43 -7.75,-5 -15.26,-9.94 -22.48,-15.55 -31.25,-22.68 -60.7,-49.09 -87.57,-78.59 -5.95,-6.53 -11.89,-13.05 -17.55,-19.88 -1.03,-1.23 -2.34,-2.81 -3.12,-4.03 -6.19,-7.14 -11.89,-14.27 -17.31,-21.76 -10.34,-13.35 -19.89,-27.02 -28.92,-41.33 -3.36,-4.95 -6.48,-10.25 -9.56,-15.24 -1.56,-2.81 -3.36,-5.29 -4.63,-8.06 -4.63,-7.44 -8.78,-14.93 -12.92,-22.68 -2.83,-4.95 -5.7,-9.94 -8,-15.24 -5.66,-10.86 -10.87,-22.07 -16.04,-33.23l445.84 -2388.74c0,-371.89 252.9,-676.31 562.32,-676.31l1375.8 -0.01c309.46,0 562.32,304.46 562.32,676.31l445.85 2388.74z"/>
        <g>
         <rect class="fil6" x="14726.38" y="-514.06" width="68.87" height="8608.95"/>
         <rect class="fil6" x="16792.83" y="-514.06" width="68.87" height="8608.95"/>
        </g>
       </g>
      </g>
     </g>
    </g>
   </g>
   <polygon class="fil7" points="21053.65,-182.31 21053.65,19390.99 1187.81,19390.99 2742.76,17730.9 4830.29,15502.29 5543.63,14740.68 8821.19,11241.56 8890.22,11171.37 9113.76,10929.22 14725.39,4938.25 14794.42,4864.55 16793.15,2730.7 16862.18,2657 17572.28,1898.9 19521.72,-182.31 "/>
  </g>
 </g>
</svg>
